<svg width="1200" height="630" viewBox="0 0 1200 630" fill="none" xmlns="http://www.w3.org/2000/svg"><path fill="#050706" d="M0 0h1200v630H0z"/><path d="M0 0h1200v630H0z" fill="url(#a)"/><circle cx="1008" cy="80" r="260" fill="#a3ff12" opacity=".09"/><circle cx="210" cy="592" r="280" fill="#64c900" opacity=".08"/><path d="M840 104c92 22 165 70 218 143 55 76 81 171 80 285" stroke="#a3ff12" stroke-opacity=".18" stroke-width="2"/><path d="M64 496c110-62 230-93 360-92 156 1 294 49 416 144" stroke="#f8fafc" stroke-opacity=".08" stroke-width="2"/><g transform="translate(88 60)"><rect width="112" height="112" rx="28" stroke="url(#b)" stroke-width="6"/><path d="m23 34.6 9-9 31.7 31.7 9.1 9-9.1 9L32 107l-9-9 31.7-31.7zm109.3 81.6v-14.1H76.1v14.1z" transform="matrix(.66 0 0 .66 5 10)" fill="url(#b)"/></g><path d="M96.037 257.443 90 251.405v-33.367L96.037 212h5.778v8.18h-2.402l-1.234 1.233v26.617l1.234 1.233h2.402v8.18zm8.504 0v-8.18h2.402l1.234-1.233v-5.13h8.18v8.504l-6.038 6.038zm3.636-30.901v-5.129l-1.234-1.233h-2.402V212h5.778l6.037 6.038v8.504zm34.524 30.9v-8.179h2.597l1.234-1.233v-26.617l-1.234-1.233h-2.597V212h5.973l6.037 6.038v33.367l-6.037 6.038zm-8.763 0-6.038-6.037v-33.367l6.038-6.038h5.972v8.18h-2.597l-1.233 1.233v26.617l1.233 1.233h2.597v8.18zm43.223 0v-8.179h6.038l1.233-1.233v-26.617l-1.232-1.233h-6.038V212h9.413l6.038 6.038v33.367l-6.038 6.038zm-10.906 0V212h8.18v45.443zm37.9-18.63V212h8.18v26.811zm0 18.63v-15.903h8.18v15.905zm10.907 0v-8.179h11.36v8.18zm0-18.63v-8.18h7.725v8.18zm0-18.632V212h11.36v8.18zm47.627 37.263-6.038-6.038v-20.773h19.41l6.038 6.037v14.736l-6.037 6.038h-5.324v-8.18h1.948l1.233-1.233v-7.985l-1.233-1.234h-6.622l-1.233 1.234v7.985l1.233 1.233h1.948v8.18zm-6.038-29.538v-9.867L262.69 212h13.373l6.037 6.038v8.504h-8.18v-5.129l-1.233-1.233h-6.622l-1.233 1.233v6.492zm40.887 18.631-5.193-5.193L308.639 212h9.348l-14.606 26.357h5.842v-4.934l8.18-14.736v19.67h1.363v8.18zm11.685 10.907v-8.18h8.18v8.18zm35.629 0v-8.18h2.402l1.233-1.233v-26.617l-1.233-1.233h-2.402V212h5.777l6.038 6.038v33.367l-6.038 6.038zm-8.505 0-6.037-6.038v-33.367l6.037-6.038h5.778v8.18h-2.402l-1.233 1.233v26.617l1.233 1.233h2.402v8.18z" fill="#fff"/><g font-family="Arial, Helvetica, sans-serif"><text y="76" fill="#df9" font-size="48" font-weight="700" transform="translate(88 254)">
      Premium full-stack development studio
    </text><text y="142" fill="#cbd5e1" font-size="31" transform="translate(88 254)">
      High-performance websites, platforms, and web apps
    </text><text y="184" fill="#94a3b8" font-size="28" transform="translate(88 254)">
      built for sharp, scalable digital products.
    </text></g><g transform="translate(88 548)"><rect width="152" height="42" rx="21" fill="#a3ff12" fill-opacity=".11" stroke="#a3ff12" stroke-opacity=".28"/><text x="22" y="28" fill="#df9" font-family="Arial, Helvetica, sans-serif" font-size="18" font-weight="400">
      code640.com
    </text></g><defs><linearGradient id="a" x1="0" y1="0" x2="1200" y2="630" gradientUnits="userSpaceOnUse"><stop stop-color="#050706"/><stop offset=".52" stop-color="#081009"/><stop offset="1" stop-color="#10190c"/></linearGradient><linearGradient id="b" x1="0" y1="0" x2="112" y2="112" gradientUnits="userSpaceOnUse"><stop stop-color="#a3ff12"/><stop offset="1" stop-color="#2c5414"/></linearGradient></defs></svg>